<?xml version="1.0" encoding="UTF-8" standalone="no"?>
<!-- Created with Inkscape (http://www.inkscape.org/) -->

<svg
   xmlns:dc="http://purl.org/dc/elements/1.1/"
   xmlns:cc="http://creativecommons.org/ns#"
   xmlns:rdf="http://www.w3.org/1999/02/22-rdf-syntax-ns#"
   xmlns:svg="http://www.w3.org/2000/svg"
   xmlns="http://www.w3.org/2000/svg"
   xmlns:sodipodi="http://sodipodi.sourceforge.net/DTD/sodipodi-0.dtd"
   xmlns:inkscape="http://www.inkscape.org/namespaces/inkscape"
   width="1062.9921"
   height="708.66138"
   id="svg2"
   version="1.1"
   inkscape:version="0.48.3.1 r9886"
   sodipodi:docname="Bottom_Panel.svg">
  <defs
     id="defs4" />
  <sodipodi:namedview
     id="base"
     pagecolor="#ffffff"
     bordercolor="#666666"
     borderopacity="1.0"
     inkscape:pageopacity="0.0"
     inkscape:pageshadow="2"
     inkscape:zoom="0.98994949"
     inkscape:cx="485.18774"
     inkscape:cy="518.80751"
     inkscape:document-units="mm"
     inkscape:current-layer="layer1"
     showgrid="false"
     units="mm"
     width="266.7mm"
     inkscape:window-width="1301"
     inkscape:window-height="744"
     inkscape:window-x="65"
     inkscape:window-y="24"
     inkscape:window-maximized="1" />
  <metadata
     id="metadata7">
    <rdf:RDF>
      <cc:Work
         rdf:about="">
        <dc:format>image/svg+xml</dc:format>
        <dc:type
           rdf:resource="http://purl.org/dc/dcmitype/StillImage" />
        <dc:title />
      </cc:Work>
    </rdf:RDF>
  </metadata>
  <g
     inkscape:label="Layer 1"
     inkscape:groupmode="layer"
     id="layer1"
     transform="translate(0,-343.70077)">
    <path
       sodipodi:type="arc"
       style="fill:none;stroke:#000000;stroke-width:0.17716534;stroke-miterlimit:4;stroke-opacity:1;stroke-dasharray:none"
       id="path2985"
       sodipodi:cx="258.59906"
       sodipodi:cy="150.55209"
       sodipodi:rx="44.446712"
       sodipodi:ry="46.972092"
       d="m 303.04577,150.55209 c 0,25.94197 -19.89947,46.9721 -44.44671,46.9721 -24.54724,0 -44.44671,-21.03013 -44.44671,-46.9721 0,-25.94197 19.89947,-46.97209 44.44671,-46.97209 24.54724,0 44.44671,21.03012 44.44671,46.97209 z"
       transform="matrix(2.6256808,0,0,2.4845154,-312.63006,139.73047)" />
    <path
       sodipodi:type="arc"
       style="fill:none;stroke:#000000;stroke-width:0.17716534;stroke-miterlimit:4;stroke-opacity:1;stroke-dasharray:none"
       id="path2985-8"
       sodipodi:cx="258.59906"
       sodipodi:cy="150.55209"
       sodipodi:rx="44.446712"
       sodipodi:ry="46.972092"
       d="m 303.04577,150.55209 c 0,25.94197 -19.89947,46.9721 -44.44671,46.9721 -24.54724,0 -44.44671,-21.03013 -44.44671,-46.9721 0,-25.94197 19.89947,-46.97209 44.44671,-46.97209 24.54724,0 44.44671,21.03012 44.44671,46.97209 z"
       transform="matrix(2.6256808,0,0,2.4845154,-519.54977,288.54937)" />
    <path
       sodipodi:type="arc"
       style="fill:none;stroke:#000000;stroke-width:0.17716534;stroke-miterlimit:4;stroke-opacity:1;stroke-dasharray:none"
       id="path2985-1"
       sodipodi:cx="258.59906"
       sodipodi:cy="150.55209"
       sodipodi:rx="44.446712"
       sodipodi:ry="46.972092"
       d="m 303.04577,150.55209 c 0,25.94197 -19.89947,46.9721 -44.44671,46.9721 -24.54724,0 -44.44671,-21.03013 -44.44671,-46.9721 0,-25.94197 19.89947,-46.97209 44.44671,-46.97209 24.54724,0 44.44671,21.03012 44.44671,46.97209 z"
       transform="matrix(2.6256808,0,0,2.4845154,-438.58228,529.49425)" />
    <path
       sodipodi:type="arc"
       style="fill:none;stroke:#000000;stroke-width:0.17716534;stroke-miterlimit:4;stroke-opacity:1;stroke-dasharray:none"
       id="path2985-9"
       sodipodi:cx="258.59906"
       sodipodi:cy="150.55209"
       sodipodi:rx="44.446712"
       sodipodi:ry="46.972092"
       d="m 303.04577,150.55209 c 0,25.94197 -19.89947,46.9721 -44.44671,46.9721 -24.54724,0 -44.44671,-21.03013 -44.44671,-46.9721 0,-25.94197 19.89947,-46.97209 44.44671,-46.97209 24.54724,0 44.44671,21.03012 44.44671,46.97209 z"
       transform="matrix(2.6256808,0,0,2.4845154,-185.03398,529.49425)" />
    <path
       sodipodi:type="arc"
       style="fill:none;stroke:#000000;stroke-width:0.17716534;stroke-miterlimit:4;stroke-opacity:1;stroke-dasharray:none"
       id="path2985-2"
       sodipodi:cx="258.59906"
       sodipodi:cy="150.55209"
       sodipodi:rx="44.446712"
       sodipodi:ry="46.972092"
       d="m 303.04577,150.55209 c 0,25.94197 -19.89947,46.9721 -44.44671,46.9721 -24.54724,0 -44.44671,-21.03013 -44.44671,-46.9721 0,-25.94197 19.89947,-46.97209 44.44671,-46.97209 24.54724,0 44.44671,21.03012 44.44671,46.97209 z"
       transform="matrix(2.6256808,0,0,2.4845154,-104.98284,288.54937)" />
    <path
       sodipodi:type="star"
       style="fill:none;stroke:#000000;stroke-width:0.17716534;stroke-miterlimit:4;stroke-opacity:1;stroke-dasharray:none"
       id="path3026"
       sodipodi:sides="5"
       sodipodi:cx="104.04571"
       sodipodi:cy="64.184052"
       sodipodi:r1="384.11441"
       sodipodi:r2="310.75507"
       sodipodi:arg1="0.94412687"
       sodipodi:arg2="1.5724454"
       inkscape:flatsided="true"
       inkscape:rounded="0"
       inkscape:randomized="0"
       d="M 329.30973,375.31104 -122.24323,374.56639 -261.07257,-55.116098 104.67914,-319.92984 469.55547,-53.911237 z"
       transform="translate(263.64981,664.92928)"
       inkscape:transform-center-x="-0.19574196"
       inkscape:transform-center-y="-36.49345" />
    <path
       sodipodi:type="arc"
       style="fill:none;stroke:#000000;stroke-width:0.17716534;stroke-miterlimit:4;stroke-opacity:1;stroke-dasharray:none"
       id="path3034"
       sodipodi:cx="371.23105"
       sodipodi:cy="385.91763"
       sodipodi:rx="24.748737"
       sodipodi:ry="24.748737"
       d="m 395.97979,385.91763 c 0,13.66835 -11.08039,24.74874 -24.74874,24.74874 -13.66835,0 -24.74874,-11.08039 -24.74874,-24.74874 0,-13.66835 11.08039,-24.74873 24.74874,-24.74873 13.66835,0 24.74874,11.08038 24.74874,24.74873 z"
       transform="matrix(0.57064242,0,0,0.57064242,156.0125,508.06151)" />
  </g>
</svg>
